# xmcd
#
# Track frame offsets:
#	150
#	2187
#	40922
#	76414
#	111947
#	137590
#	186471
#	202839
#	234395
#
# Disc length: 3776 seconds
#
# Revision: 1
# Processed by: cddbd v1.5.2PL0 Copyright (c) Steve Scherf et al.
# Submitted via: audiograbber 1.83.01
#
DISCID=710ebe09
DTITLE=Grateful Dead - 79-11-30 Stanley Theatre, Pittsburgh PA
DYEAR=1900
DGENRE=
TTITLE0=Tuning
TTITLE1=Alabama Getaway
TTITLE2=Greatest Story Ever Told
TTITLE3=Peggy-O
TTITLE4=Cassidy
TTITLE5=Friend Of The Devil
TTITLE6=Easy To Love You
TTITLE7=El Paso
TTITLE8=Tennessee Jed
EXTD=
EXTT0=
EXTT1=
EXTT2=
EXTT3=
EXTT4=
EXTT5=
EXTT6=
EXTT7=
EXTT8=
PLAYORDER=
